# xmcd CD database file
#
# Track frame offsets:
#	150
#	14182
#	32992
#	45091
#	56782
#	70123
#
# Disc length: 1170 seconds
#
# Revision: 4
# Processed by: cddbd v1.5.1PL0 Copyright (c) Steve Scherf et al.
# Submitted via: CDex 1.51
#
DISCID=4e049006
DTITLE=Garth Brooks - New Songs from The Limited Series (Box Set) (Promo CD)
DYEAR=1998
DGENRE=Country
TTITLE0=Uptown Down-Home Good Ol' Boy
TTITLE1=This Ain't Tennessee
TTITLE2=Which One Of Them
TTITLE3=Something With A Ring To It
TTITLE4=Anonymous
TTITLE5=Garth Brooks - To Make You Feel My Love
EXTD=YEAR: 1998
EXTT0=
EXTT1=
EXTT2=
EXTT3=
EXTT4=
EXTT5=
PLAYORDER=
